# xmcd
#
# Track frame offsets:
#	150
#	18463
#	40210
#	55908
#	72543
#	89045
#	109303
#	126833
#	144983
#	161415
#	179143
#	198653
#	219368
#	239310
#
# Disc length: 3516 seconds
#
# Revision: 1
# Processed by: cddbd v1.5PL3 Copyright (c) Steve Scherf et al.
# Submitted via: CDex 1.50Beta5
#
DISCID=d60dba0e
DTITLE=都はるみ - 都はるみ全曲集/小樽運河・千年の古都
DYEAR=1900
DGENRE=World
TTITLE0=アンコ椿は恋の花
TTITLE1=涙の連絡船
TTITLE2=さよなら列車
TTITLE3=好きになった人
TTITLE4=惚れちゃったんだヨ
TTITLE5=おんなの海峡
TTITLE6=北の宿から
TTITLE7=大阪しぐれ
TTITLE8=浮草ぐらし
TTITLE9=ふたりの大阪
TTITLE10=浪速恋しぐれ
TTITLE11=夫婦坂
TTITLE12=小樽運河
TTITLE13=千年の古都
EXTD=
EXTT0=
EXTT1=
EXTT2=
EXTT3=
EXTT4=
EXTT5=
EXTT6=
EXTT7=
EXTT8=
EXTT9=
EXTT10=
EXTT11=
EXTT12=
EXTT13=
PLAYORDER=
